<svg id="Layer_1" data-name="Layer 1" xmlns="http://www.w3.org/2000/svg" viewBox="0 0 971.69 634.78"><defs><style>.cls-1,.cls-4,.cls-5{fill:#231f20;}.cls-1,.cls-3,.cls-5{stroke:#231f20;stroke-miterlimit:10;}.cls-1,.cls-3{stroke-width:0.5px;}.cls-2{fill:#e6e7e8;}.cls-3{fill:none;}.cls-5{stroke-width:0.75px;}</style></defs><path class="cls-1" d="M14.41,667.3s2.33-8.82,9.73-9.33,37-19,37-19l232.5-126.89s14.54,1.32,19.76,3.65S373.88,552,373.88,552l4.56.09,120.4-68s8.08-3.05,13.85,0,109,66.76,109,66.76,12.57,2.23,15.41.41S702,513.55,716,512.74s168.95,95,168.95,95L985.25,664s2.74,4.26-7.3,3.35l-12.16-7.6s-17.63-2.13-19.76-4.57-13.68-8.51-13.68-8.51-7.3-.3-7.3,1.52S912,643,912,643l-40.74-2.13S842,642.67,851.77,618c0,0-16.42.91-27.06-3l-8.21-5.78-41-2.73s-17.63-1.22-8.51-12.17c0,0,31.93,0,34.66-3.34,0,0,9.43-4.56-6.69-10.34s-77.53-49.86-77.53-52.6c0,0,1.22-1.52-6.69,1.22s-46.52,29.19-46.52,29.19-9.12,6.38,2.13,14S718,604.36,718,604.36l18.24,12.16s-58.38-11.25-86.35-23.41-36.49-11-36.49-11-18.54-3.65-27.06-21.59-79.66-57.16-79.66-57.16-.3-5.47-16.11,4.56S431,539,420,572.43c0,0-46.22,13.38-63.25,18.55s-62.33,25.84-62.33,25.84-23.41.61-23.41-2.43,64.15-39.31,64.15-39.31,9.73-13.09-3-20.33S313.6,539,313.6,539l-23.11-6.69S225.73,578.51,216.6,580c0,0-24.62,13.38-.3,12.77l24.32-.6s11.56,2.12-1.21,8.51S216.3,605,216.3,605s-40.44,9.12-46.22,9.73S159.75,625,159.75,625s3,11-10.34,12.47-39.53,9.73-39.53,9.73L25.35,671S17.14,675.51,14.41,667.3Z" transform="translate(-14.15 -182.93)"/><polygon class="cls-2" points="25.12 435.34 9.76 429.48 26.71 351.8 113.83 384.79 25.12 435.34"/><path class="cls-3" d="M173.73,542.33" transform="translate(-14.15 -182.93)"/><polygon class="cls-2" points="159.59 359.4 217.96 328.08 85.4 228.35 45.87 299.79 159.59 359.4"/><path class="cls-2" d="M129.64,366.89l55.65-57.77L325.76,490.34s-22.49-19.45-62,2.73Z" transform="translate(-14.15 -182.93)"/><polygon class="cls-2" points="209.85 90.41 275.94 48.25 394.72 316.22 362.69 332.85 209.85 90.41"/><polygon class="cls-2" points="398.37 6.5 446.61 284.6 412.56 305.28 323.37 28.39 398.37 6.5"/><path class="cls-2" d="M539.8,182.93,531.39,300,529,333.74l-8.63,120c-1.31-.19-2.64-.38-4.05-.52s-2.85-.24-4.35-.29a76.54,76.54,0,0,0-29,4.57c-1.38.48-2.69,1-3.9,1.5q-4.15-62.62-8.29-125.28c-.72-11.24-1.48-22.5-2.22-33.75q-3.86-58.51-7.74-117.06Z" transform="translate(-14.15 -182.93)"/><polygon class="cls-2" points="527.51 277.78 573.91 6.5 648.1 30.82 562.96 301.63 527.69 280.55 527.13 280.14 527.51 277.78"/><polyline class="cls-2" points="580.39 312.17 696.34 50.68 762.02 90.41 609.58 332.85 580.39 314.2"/><path class="cls-2" d="M742.11,488.21,870.62,369l-53.11-59.9L665.89,498.34S718.19,467.13,742.11,488.21Z" transform="translate(-14.15 -182.93)"/><polygon class="cls-2" points="759.18 323.52 887.29 229.87 926.21 299.79 817.15 357.57 759.18 323.52"/><polygon class="cls-2" points="863.37 383.12 945.26 351.09 965.53 430.55 953.77 434.2 863.37 383.12"/><path class="cls-3" d="M482.9,458.11" transform="translate(-14.15 -182.93)"/><path class="cls-1" d="M567.79,306.09v21.58a6.07,6.07,0,0,1-6.08,6.07H516.29v119.5c-1.4-.15-2.85-.24-4.35-.29a76.54,76.54,0,0,0-29,4.57V333.74H441.29a6.06,6.06,0,0,1-6.07-6.07V306.09a6.09,6.09,0,0,1,6.07-6.1H482.9V263.51a6.6,6.6,0,0,1,6.6-6.58h20.22a6.59,6.59,0,0,1,6.57,6.58V300h45.42A6.09,6.09,0,0,1,567.79,306.09Z" transform="translate(-14.15 -182.93)"/><path class="cls-2" d="M482.9,457.52" transform="translate(-14.15 -182.93)"/><polygon class="cls-4" points="105.26 585.82 105.26 482.64 131.41 482.64 131.41 526.63 174.59 482.64 203.37 482.64 161.61 528.66 206.81 586.83 175.4 586.83 142.76 547.71 132.02 557.64 132.22 586.83 105.26 585.82"/><path class="cls-4" d="M324.34,692.74l7.91-20.53s-47.84-22-77.44,4.72c0,0-18.65,22.09,2,38.71,0,0-31.42,23.72.41,48,0,0,23.91,19.06,72.16,0l5.88-4L327.18,740s-35.07,21.08-55.54,3.24c0,0-8.72-9.53,3.65-15.41l41.35.41-.41-21.89-32.84.61s-25.94-9.94-.81-20.28C282.58,686.65,305.08,682.4,324.34,692.74Z" transform="translate(-14.15 -182.93)"/><path class="cls-4" d="M452.84,715.23s25.16-25.65-1.21-43c0,0-5.26-6.83-22.08-6.64s-56.16,1.62-56.16,1.62l1,102.58,67.69-1.83s26-3.24,25.34-27.37S452.84,715.23,452.84,715.23Zm-54.73-29.58h29.2c26.34,7.9.81,22.48.81,22.48h-30Zm35.09,63.64H398.11V728l35.09-1.21C458.94,737.52,433.2,749.29,433.2,749.29Z" transform="translate(-14.15 -182.93)"/><path class="cls-4" d="M579.55,734.69s18.84,0,19.06-32.23S564.55,667,564.55,667l-57.38-1.43v102l25.75,2.24.4-29,20.27.2,19.06,28.79L600,768.56Zm-18.76-14.17H533.42V687.81s17.34-3,27.94.62,12,5,13.26,16.58S560.79,720.52,560.79,720.52Z" transform="translate(-14.15 -182.93)"/><path class="cls-4" d="M689.78,662.78a54.89,54.89,0,1,0,54.9,54.88A54.88,54.88,0,0,0,689.78,662.78Zm0,85.39A30.18,30.18,0,1,1,720,718,30.18,30.18,0,0,1,689.78,748.17Z" transform="translate(-14.15 -182.93)"/><path class="cls-4" d="M786.7,665.17V769.56h26.15v-67.3s4.46-15.1,18-14.44c0,0,24.87-6.28,25.14,12.21,1,70.54,0,68.31,0,68.31l25.74,1.22-1-73.38s-1.83-22.09-23.31-30-39.12,3.25-39.12,3.25l-6.9,5.06-.6-8.71Z" transform="translate(-14.15 -182.93)"/><path class="cls-5" d="M219.81,817.07V798.73h3.41v18.34Z" transform="translate(-14.15 -182.93)"/><path class="cls-5" d="M241.66,817.07V798.73h2.81L256,812.88h-1.39V798.73h3.35v18.34h-2.8l-11.47-14.15H245v14.15Z" transform="translate(-14.15 -182.93)"/><path class="cls-5" d="M280.1,817.07V801.61H274v-2.88h15.56v2.88H283.5v15.46Z" transform="translate(-14.15 -182.93)"/><path class="cls-5" d="M309.05,814.19H319.4v2.88H305.64V798.73H319v2.88h-10Zm-.26-7.84h9.11v2.81h-9.11Z" transform="translate(-14.15 -182.93)"/><path class="cls-5" d="M336.69,817.07V798.73h7.54a10.33,10.33,0,0,1,4.18.77,6,6,0,0,1,2.69,2.24,6.35,6.35,0,0,1,.94,3.51,5.86,5.86,0,0,1-3.63,5.69,10.16,10.16,0,0,1-4.18.78H338.6l1.49-1.51v6.86Zm3.4-6.5-1.49-1.65h5.48a5.1,5.1,0,0,0,3.39-1,3.74,3.74,0,0,0,0-5.38,5.15,5.15,0,0,0-3.39-1H338.6l1.49-1.68Zm8.6,6.5-4.64-6.65h3.64l4.67,6.65Z" transform="translate(-14.15 -182.93)"/><path class="cls-5" d="M369.33,817.07V798.73h2.81l11.5,14.15h-1.39V798.73h3.35v18.34h-2.8l-11.48-14.15h1.39v14.15Z" transform="translate(-14.15 -182.93)"/><path class="cls-5" d="M401.45,817.07l8.26-18.34h3.35l8.28,18.34h-3.59l-7.08-16.53H412l-7.1,16.53Zm3.8-4.24.95-2.68h9.87l.92,2.68Z" transform="translate(-14.15 -182.93)"/><path class="cls-5" d="M440,817.07V801.61h-6.08v-2.88h15.56v2.88h-6.08v15.46Z" transform="translate(-14.15 -182.93)"/><path class="cls-5" d="M465.51,817.07V798.73h3.41v18.34Z" transform="translate(-14.15 -182.93)"/><path class="cls-5" d="M496,817.33a10.61,10.61,0,0,1-3.94-.71,9.38,9.38,0,0,1-3.16-2,9,9,0,0,1-2.07-3,9.33,9.33,0,0,1-.73-3.73,9.44,9.44,0,0,1,.73-3.76,9,9,0,0,1,2.07-3,9.8,9.8,0,0,1,3.15-2,10.75,10.75,0,0,1,3.95-.7,10.89,10.89,0,0,1,3.93.69,9.11,9.11,0,0,1,3.13,2,8.74,8.74,0,0,1,2.06,3,10.07,10.07,0,0,1,0,7.53,9.13,9.13,0,0,1-2.06,3,9.28,9.28,0,0,1-3.13,2A10.89,10.89,0,0,1,496,817.33Zm0-3a6.67,6.67,0,0,0,2.56-.47,6.06,6.06,0,0,0,2-1.33,6.25,6.25,0,0,0,1.35-2,6.79,6.79,0,0,0,.48-2.59,7,7,0,0,0-.47-2.59,5.81,5.81,0,0,0-1.35-2,6.11,6.11,0,0,0-2-1.33,6.67,6.67,0,0,0-2.56-.48,6.88,6.88,0,0,0-2.58.48,5.73,5.73,0,0,0-2.05,1.35,6.59,6.59,0,0,0,0,9.24,5.73,5.73,0,0,0,2.05,1.35A6.88,6.88,0,0,0,496,814.34Z" transform="translate(-14.15 -182.93)"/><path class="cls-5" d="M522.91,817.07V798.73h2.8l11.51,14.15h-1.39V798.73h3.35v18.34h-2.8L524.9,802.92h1.39v14.15Z" transform="translate(-14.15 -182.93)"/><path class="cls-5" d="M555,817.07l8.26-18.34h3.35l8.28,18.34h-3.59l-7.08-16.53h1.37l-7.1,16.53Zm3.8-4.24.94-2.68h9.88l.92,2.68Z" transform="translate(-14.15 -182.93)"/><path class="cls-5" d="M590.74,817.07V798.73h3.41v15.46h9.59v2.88Z" transform="translate(-14.15 -182.93)"/><path class="cls-5" d="M649.14,817.33a10.65,10.65,0,0,1-3.9-.69,9.39,9.39,0,0,1-3.11-2,9.06,9.06,0,0,1-2-3,10,10,0,0,1,0-7.54,8.94,8.94,0,0,1,2.06-3,9.32,9.32,0,0,1,3.12-2,11.39,11.39,0,0,1,8,.08,8.16,8.16,0,0,1,3.14,2.29l-2.2,2.07A7,7,0,0,0,652,802a6.51,6.51,0,0,0-2.65-.54,7,7,0,0,0-2.63.48,6.23,6.23,0,0,0-2.07,1.33,6.3,6.3,0,0,0-1.37,2,7,7,0,0,0,0,5.18,6.3,6.3,0,0,0,1.37,2,6.23,6.23,0,0,0,2.07,1.33,7,7,0,0,0,2.63.47,6.5,6.5,0,0,0,2.65-.53,6.84,6.84,0,0,0,2.25-1.64l2.2,2.07a8.19,8.19,0,0,1-3.14,2.3A10.43,10.43,0,0,1,649.14,817.33Z" transform="translate(-14.15 -182.93)"/><path class="cls-5" d="M676.6,817.07h-3.41V798.73h3.41Zm9.74-7.86h-10V806.3h10Zm-.26-10.48h3.38v18.34h-3.38Z" transform="translate(-14.15 -182.93)"/><path class="cls-5" d="M715.76,817.33a8,8,0,0,1-5.88-2.12,8.34,8.34,0,0,1-2.13-6.16V798.73h3.4V809a5.84,5.84,0,0,0,1.22,4.11,4.5,4.5,0,0,0,3.45,1.28,4.46,4.46,0,0,0,3.43-1.28,5.88,5.88,0,0,0,1.2-4.11V798.73h3.36v10.32a8.3,8.3,0,0,1-2.14,6.16A8,8,0,0,1,715.76,817.33Z" transform="translate(-14.15 -182.93)"/><path class="cls-5" d="M742.07,817.07V798.73h7.54a10.33,10.33,0,0,1,4.18.77,6,6,0,0,1,2.69,2.24,6.35,6.35,0,0,1,.94,3.51,5.86,5.86,0,0,1-3.63,5.69,10.16,10.16,0,0,1-4.18.78H744l1.49-1.51v6.86Zm3.4-6.5L744,808.92h5.48a5.1,5.1,0,0,0,3.39-1,3.74,3.74,0,0,0,0-5.38,5.15,5.15,0,0,0-3.39-1H744l1.49-1.68Zm8.6,6.5-4.64-6.65h3.64l4.67,6.65Z" transform="translate(-14.15 -182.93)"/><path class="cls-5" d="M783.2,817.33a10.69,10.69,0,0,1-3.9-.69,9.39,9.39,0,0,1-3.11-2,9.06,9.06,0,0,1-2.05-3,10,10,0,0,1,0-7.54,8.83,8.83,0,0,1,2.07-3,9.18,9.18,0,0,1,3.11-2,11.39,11.39,0,0,1,8,.08,8.16,8.16,0,0,1,3.14,2.29l-2.2,2.07A7,7,0,0,0,786,802a6.51,6.51,0,0,0-2.65-.54,7,7,0,0,0-2.63.48,6.23,6.23,0,0,0-2.07,1.33,6.3,6.3,0,0,0-1.37,2,7,7,0,0,0,0,5.18,6.3,6.3,0,0,0,1.37,2,6.23,6.23,0,0,0,2.07,1.33,7,7,0,0,0,2.63.47,6.5,6.5,0,0,0,2.65-.53,6.84,6.84,0,0,0,2.25-1.64l2.2,2.07a8.19,8.19,0,0,1-3.14,2.3A10.43,10.43,0,0,1,783.2,817.33Z" transform="translate(-14.15 -182.93)"/><path class="cls-5" d="M810.66,817.07h-3.41V798.73h3.41Zm9.74-7.86h-10V806.3h10Zm-.26-10.48h3.38v18.34h-3.38Z" transform="translate(-14.15 -182.93)"/></svg>